<svg width="32" height="32" viewBox="0 0 32 32" fill="none" xmlns="http://www.w3.org/2000/svg">
  <rect width="32" height="32" rx="8" fill="#4F46E5"/>
  <path d="M22 12H10C8.89543 12 8 12.8954 8 14V22C8 23.1046 8.89543 24 10 24H22C23.1046 24 24 23.1046 24 22V14C24 12.8954 23.1046 12 22 12Z" stroke="white" stroke-width="2" stroke-linecap="round" stroke-linejoin="round"/>
  <path d="M16 20C17.1046 20 18 19.1046 18 18C18 16.8954 17.1046 16 16 16C14.8954 16 14 16.8954 14 18C14 19.1046 14.8954 20 16 20Z" stroke="white" stroke-width="2" stroke-linecap="round" stroke-linejoin="round"/>
  <path d="M12 12V9C12 7.93913 12.4214 6.92172 13.1716 6.17157C13.9217 5.42143 14.9391 5 16 5C17.0609 5 18.0783 5.42143 18.8284 6.17157C19.5786 6.92172 20 7.93913 20 9V12" stroke="white" stroke-width="2" stroke-linecap="round" stroke-linejoin="round"/>
</svg> 